<?xml version="1.0" encoding="UTF-8"?>
<svg id="Capa_2" data-name="Capa 2" xmlns="http://www.w3.org/2000/svg" viewBox="0 0 620.36 153.02">
  <defs>
    <style>
      .cls-1 {
        fill: #47648f;
      }

      .cls-2 {
        fill: #ddbf75;
      }
    </style>
  </defs>
  <g id="Layer_1" data-name="Layer 1">
    <g>
      <path class="cls-1" d="M0,60.87v73.54c0,.98.8,1.78,1.78,1.78h18.71c.98,0,1.78-.8,1.78-1.78l-.07-27.05h11.92c11.53,0,28.66-11.37,28.66-28.74v-29.53c0-15.08-12.56-29.22-29.45-29.22H1.78c-.98,0-1.78.8-1.78,1.78v39.18l22.16-.16-.12-20.4h8.84c5.74,0,9.58,4.69,9.58,9.84v26.95c0,3.74-2.58,10-9.07,10h-9.07l-.15-26.41L0,60.87Z"/>
      <path class="cls-1" d="M95.8,68.51v20.11h18.11v-41.43c0-5-4.05-9.05-9.05-9.05s-9.05,4.05-9.05,9.05v21.32h-22.37v-21.87c0-15.71,15.64-28.82,31.43-28.82s31.43,12.16,31.43,28.82l-.11,87.69c0,.98-.8,1.78-1.78,1.78h-18.89c-.98,0-1.78-.8-1.78-1.78l.13-25.94h-18v25.94c.01.98-.78,1.78-1.76,1.78h-18.89c-.98,0-1.78-.8-1.78-1.78v-65.82h22.37Z"/>
      <path class="cls-1" d="M186.48,62.09c0,4.88-3.96,8.84-8.84,8.84s-8.84-3.96-8.84-8.84l-.54-40.44c0-.98-.8-1.78-1.78-1.78h-18.73c-.98,0-1.78.8-1.78,1.78v38.07c0,13.59,8.56,25.18,20.58,29.67l-.05,44.94c0,.98.8,1.78,1.78,1.78h18.73c.98,0,1.78-.8,1.78-1.78l-.02-44.96c12-4.5,20.55-16.08,20.55-29.66V21.65c0-.98-.8-1.78-1.78-1.78h-18.73c-.98,0-1.78.8-1.78,1.78l-.54,40.44Z"/>
    </g>
    <g>
      <rect class="cls-1" x="446.71" y="19.87" width="22.28" height="116.24" rx="1.78" ry="1.78"/>
      <path class="cls-1" d="M432.19,134.33c0,.98-.8,1.78-1.78,1.78h-18.73c-.98,0-1.78-.8-1.78-1.78,0,0-.21-3.43-.21-22.7s-11.69-22.9-19.22-22.9l.02,45.6c0,.98-.8,1.78-1.78,1.78h-18.73c-.98,0-1.78-.8-1.78-1.78V21.65c0-.98.8-1.78,1.78-1.78h18.73c.98,0,1.78.8,1.78,1.78l.54,46.25s18.23,0,18.23-25.6v-20.65c0-.98.8-1.78,1.78-1.78h18.73c.98,0,1.78.8,1.78,1.78v21.6c0,25.11-14.74,34.11-14.74,34.11,0,0,15.39,11.53,15.39,31.59v25.39Z"/>
      <path class="cls-1" d="M545.93,49.49c0-17.3-14.02-31.32-31.32-31.32s-31.32,14.02-31.32,31.32l.21,84.84c0,.98.8,1.78,1.78,1.78h18.73c.98,0,1.78-.8,1.78-1.78V47.13c0-4.93,4-8.93,8.93-8.93s8.93,4,8.93,8.93v87.2c0,.98.8,1.78,1.78,1.78h18.73c.98,0,1.78-.8,1.78-1.78V49.49Z"/>
      <path class="cls-1" d="M620.36,75.11c0-.98-.8-1.78-1.78-1.78h-25.58c-.98,0-1.78.8-1.78,1.78v14.69c0,.98.8,1.78,1.78,1.78h5.58v18.57c0,4.82-3.91,8.73-8.73,8.73s-8.73-3.91-8.73-8.73v-63.65c0-4.82,3.91-8.73,8.73-8.73s8.73,3.91,8.73,8.73v10.38c0,.98.8,1.78,1.78,1.78h18.23c.98,0,1.78-.8,1.78-1.78v-8.07c0-16.91-13.71-30.62-30.62-30.62s-30.62,13.71-30.62,30.62v59.04c0,16.91,13.71,30.62,30.62,30.62s30.62-13.71,30.62-30.62v-32.73Z"/>
    </g>
    <g>
      <g id="layer1">
        <g id="g1">
          <path id="path6" class="cls-2" d="M291.48,18.05c-42.04-10.45-59.55,14.57-57.21,3.59.72-3.4,12.87-11.56,25.72-17.06,14.44-6.56,42-6.77,54.83,4.01,8.63,6.51,11.47,20.52,6.71,26.44,0,0,1.7,1.23,3.89,2.24,2.19,1.01,5.56,4.04,8.25,6.4,2.69,2.36,1.85,5.56,1.85,5.56,0,0,19.2,14.65,21.56,16.51,2.36,1.85,4.04,2.02,3.87,6.4-.17,4.38-3.03,4.38-4.21,5.05-1.18.67.55,3.54.89,5.39s0,3.54-.51,6.4c-.81,4.2-4.18,2.22-3.63,8.05.43,2.88-1.47,4.3-3.32,5.93-6.03,4.89-12.17,6.06-18.02,2.86,1.83,3.21,8.59,12.29,10.27,17.01,1.18,3.2,1.85,7.07,1.85,7.07,0,0-4.72-4.21-7.07-6.23-2.36-2.02-5.22-3.2-5.22-3.2,0,0-2.26-2.45-3.44-4.3-1.18-1.85-2.79-3.44-4.81-5.63-2.02-2.19-5.56-6.57-7.07-8.93-1.52-2.36-3.36-3.06-5.73-1.37-1.6,1.14-1.25,4.09.4,5.85,2.26,2.41,10.12,9.87,10.12,9.87,0,0-6.31-2.98-9.18-3.62-3.99-.9-11.73-1.95-11.73-1.95,0,0-5.52-5.78-8.27-9.64-4.76-7.55-4.62-18.07-2.83-27.66,1.66-7.36,9.38-14.58,9.38-14.58,0,0-3.02,8.18-3.16,11.92-.14,3.74,1.74,8.84,7.81,14.9,6.06,6.06,9.01,4.3,9.01,4.3,4.38-4.71,2.27-8.86,8.79-8.16,3.43.37,3.61,3.51,3.94,5.7.34,2.19,1.65,4.24,5.03,6.59,3,2.09,7.04,1.72,10.23.33,2.06-.9,3.24-3.01,5.92-6.21,2.11-2.52,1.59-7.29,1.59-7.29-2.36-3.73-4.81-2.38-6.36-5.02-.84-1.52-.37-3.76.64-4.27,1.01-.51,4.35-1.35,4.35-1.35l-14.63-12.8.84,7.24c-2.56,2.82-5.76,4.21-7.92-1.01-.51-1.35-1.85-2.19-3.37-2.53-1.52-.34-4.2.34-6.39.18-2.82-.19-8.79-6.1-5.4-8.26,0,0,4.32.46,6.34.13s4.96-.84,6.63-1.72c2.29-1.21.55-3.78.06-4.8-.69-1.45-2.21-2.64-5.02-3.8-1.97-.81-3.8-2.44-10.88-2.1-7.07.34-13.84,3.77-15.66,10.78-1.1,4.24-.62,9.19-3.98,14.25-3.37,5.05-7.72,7.9-12.63,11.87-14.77,10.83-25.2,21.86-20.19,39.46,0,0-4.33,1.79-8.48,3.94-3.5,1.81-7.51,4.7-7.51,4.7-1.7-12.43-2.08-22.83,5.04-35.7,2.5-4.26,6.07-8.68,9.1-11.88,3.03-3.2,8.19-6.62,9.54-7.8,1.35-1.18,1.66-4.53.99-5.71-.67-1.18-3.85-2.37-5.87-1.19-2.02,1.18-7.53,4.96-12.31,10.12-14.2,16-14.9,35.79-12.14,49.35.34,2.36-.8,3.58-3.1,4.21-7.45,2.04-23.6-46.77,10.01-71.58,6.79-5.01,11.02-6.43,14.19-8.5,1.92-1.25,3.93-3.97,2.62-6.04-1.81-2.85-3.53-1.79-5.72-1.29-2.19.51-10.98,5.85-14.4,9.76-5.08,5.81-7.95,9.64-12.82,19.81-.95,1.99-2.96,3.4-4.83,2.65-1.14-.46-2.36-2.67-2.38-4.27,2.91-23.17,21.24-42.46,44.62-46.7,11.42-1.5,28.3-.68,29.27,5.05s-10.74,7.26-17.6,8.99-10.04,6.01-10.15,12.22c-.08,4.6,1.67,6.83,3.25,8.7s4.64,5.11,7.4,2.29c3.31-3.39-3.86-4.17-4.16-11.12-.18-4.19,2.71-6.97,8.36-7.8,6.57-1.05,16.27-4.71,20.17-10.15,2.29-3.17.46-9.05-6.03-10.82h0Z"/>
          <path id="path2" class="cls-2" d="M283.56,77.03s-7.62,6.58-10.39,9.52c-2.55,2.71-4.86,5.96-8.02,11.97-2.98,5.66-4.24,16.42-4.24,16.42,3.72-1.49,7.02-2.9,14.49-3.86,8-1.03,14.03-1.01,14.03-1.01,0,0-4.18-4.66-6.37-7.99-2-3.04-3.06-6.58-2.92-11.73.21-7.66,3.43-13.32,3.43-13.32h0Z"/>
        </g>
      </g>
      <g>
        <path class="cls-2" d="M327.56,138.31c-10.82-7.85-24.13-12.49-38.52-12.49s-27.18,4.45-37.88,12.02l-4.02-6.59c11.89-8.24,26.33-13.07,41.9-13.07s30.64,5.04,42.68,13.62l-4.15,6.51Z"/>
        <path class="cls-2" d="M315.44,144.14c-7.68-4.17-16.49-6.54-25.85-6.54-9.87,0-19.12,2.63-27.08,7.24l-3.68-5.86c8.81-5.35,19.14-8.43,30.2-8.43s21.25,3.04,30.01,8.32l-3.6,5.29Z"/>
        <path class="cls-2" d="M303.34,153.02c-4.11-2.15-8.79-3.37-13.75-3.37s-9.38,1.15-13.41,3.2l-2.89-6.68c5-2.15,10.51-3.35,16.3-3.35s11.46,1.23,16.52,3.44l-2.78,6.75Z"/>
      </g>
    </g>
  </g>
</svg>