<svg fill="none" xmlns="http://www.w3.org/2000/svg" viewBox="0 0 160 50"><path d="M41.5 27.61h12.2v-6.14H41.5v-6.08h13.96V9.24H34.8v31.41h21.07v-6.14H41.51zm29.05-6.36L64.83 9.24h-7.7l9.94 19.99v11.42h6.7V29.23l9.95-19.99h-7.54zm30.82.33c0 .88-.71 1.6-1.59 1.6H92.1v-7.8h7.68c.88 0 1.59.72 1.59 1.6zm.35-12.34H85.4v31.41h6.7V29.23h9.62c3.5 0 6.35-2.84 6.35-6.35v-7.29c0-3.5-2.85-6.35-6.35-6.35m40.9 6.15h7.68c.87 0 1.58.7 1.58 1.59v4.6c0 .88-.7 1.6-1.58 1.6h-7.68zM160 40.65l-5.63-11.8a6.35 6.35 0 0 0 4.22-5.97v-7.29c0-3.5-2.85-6.35-6.35-6.35h-16.32v31.41h6.7V29.23h4.6l5.46 11.42zm-36.8-11.9-3.95-12.55h-.09l-4 12.55zm11.06 11.9h-7.2l-1.97-6.5h-11.64l-2.24 6.5h-6.93l11.2-31.57h7.63zM24.81 9.22H19.5l-3.83 18.03L12 9.22H0v31.43h6.66V15.31l5.55 25.34h6.7l5.9-25.63v25.63h6.67V9.22z" fill="#020202"/><path d="M31.48 0H0v4.58h31.48z" fill="#E62144"/><path d="M31.48 45.16H0v4.58h31.48z" fill="#7F7F7F"/></svg>