<?xml version="1.0" encoding="UTF-8"?>
<svg id="Capa_2" data-name="Capa 2" xmlns="http://www.w3.org/2000/svg" viewBox="0 0 172.71 182.75">
  <defs>
    <style>
      .cls-1 {
        fill: #ddbf75;
      }
    </style>
  </defs>
  <g id="Layer_1" data-name="Layer 1">
    <g>
      <g id="layer1">
        <g id="g1">
          <path id="path6" class="cls-1" d="M89.73,21.55C39.53,9.07,18.62,38.95,21.4,25.84c.86-4.06,15.37-13.8,30.71-20.37,17.25-7.83,50.15-8.09,65.48,4.79,10.3,7.77,13.69,24.51,8.02,31.57,0,0,2.03,1.47,4.64,2.67,2.61,1.21,6.64,4.83,9.86,7.64,3.22,2.82,2.21,6.64,2.21,6.64,0,0,22.93,17.5,25.75,19.71,2.82,2.21,4.83,2.41,4.63,7.64-.2,5.23-3.62,5.23-5.03,6.03-1.41.8.66,4.22,1.06,6.44s0,4.22-.6,7.64c-.97,5.01-4.99,2.65-4.34,9.62.51,3.44-1.75,5.14-3.96,7.08-7.2,5.84-14.54,7.24-21.52,3.42,2.18,3.84,10.26,14.68,12.27,20.32,1.41,3.82,2.21,8.45,2.21,8.45,0,0-5.63-5.03-8.45-7.44-2.82-2.41-6.24-3.83-6.24-3.83,0,0-2.7-2.93-4.11-5.14-1.41-2.21-3.34-4.11-5.75-6.72-2.41-2.61-6.64-7.84-8.45-10.66-1.81-2.82-4.01-3.66-6.84-1.63-1.91,1.37-1.5,4.89.47,6.99,2.7,2.88,12.09,11.78,12.09,11.78,0,0-7.54-3.55-10.97-4.33-4.77-1.07-14.01-2.33-14.01-2.33,0,0-6.59-6.9-9.87-11.51-5.68-9.02-5.51-21.58-3.38-33.04,1.98-8.79,11.2-17.42,11.2-17.42,0,0-3.61,9.77-3.78,14.24-.17,4.47,2.08,10.55,9.32,17.79,7.24,7.24,10.75,5.13,10.75,5.13,5.23-5.62,2.71-10.58,10.5-9.74,4.1.44,4.31,4.19,4.71,6.8.4,2.61,1.98,5.06,6.01,7.87,3.58,2.49,8.41,2.06,12.22.39,2.46-1.08,3.87-3.6,7.07-7.42,2.52-3,1.9-8.7,1.9-8.7-2.82-4.45-5.75-2.84-7.59-5.99-1.01-1.81-.44-4.49.76-5.1,1.21-.6,5.2-1.61,5.2-1.61l-17.47-15.29,1.01,8.65c-3.06,3.37-6.88,5.03-9.45-1.21-.6-1.61-2.21-2.61-4.02-3.02-1.81-.4-5.02.41-7.63.21-3.37-.23-10.5-7.28-6.45-9.87,0,0,5.16.55,7.58.15,2.41-.4,5.93-1,7.91-2.05,2.73-1.44.66-4.52.08-5.74-.83-1.73-2.65-3.15-6-4.54-2.35-.97-4.54-2.91-12.99-2.51-8.45.4-16.53,4.5-18.71,12.87-1.31,5.06-.74,10.98-4.76,17.01-4.02,6.03-9.22,9.44-15.08,14.17-17.64,12.93-30.09,26.1-24.11,47.13,0,0-5.17,2.14-10.13,4.71-4.18,2.16-8.97,5.61-8.97,5.61-2.03-14.84-2.49-27.26,6.02-42.63,2.98-5.09,7.25-10.36,10.87-14.18,3.62-3.82,9.78-7.91,11.39-9.31,1.61-1.41,1.98-5.41,1.18-6.82-.8-1.41-4.59-2.83-7.01-1.42-2.41,1.41-8.99,5.93-14.7,12.09-16.96,19.11-17.8,42.74-14.49,58.93.4,2.82-.95,4.27-3.7,5.03-8.9,2.44-28.19-55.85,11.95-85.49,8.11-5.99,13.16-7.68,16.94-10.15,2.3-1.5,4.7-4.74,3.13-7.22-2.16-3.41-4.21-2.14-6.83-1.54-2.61.6-13.12,6.99-17.19,11.65-6.07,6.94-9.49,11.51-15.31,23.66-1.14,2.37-3.53,4.06-5.77,3.16-1.36-.54-2.82-3.19-2.84-5.1C3.48,52.83,25.36,29.79,53.28,24.73c13.64-1.79,33.79-.82,34.95,6.03,1.16,6.85-12.82,8.67-21.02,10.73-8.19,2.06-11.99,7.18-12.12,14.59-.1,5.49,1.99,8.16,3.88,10.38s5.55,6.1,8.84,2.73c3.96-4.04-4.62-4.98-4.97-13.29-.21-5.01,3.24-8.33,9.98-9.31,7.85-1.25,19.43-5.63,24.09-12.12,2.74-3.79.55-10.81-7.2-12.92h0Z"/>
          <path id="path2" class="cls-1" d="M80.27,92s-9.1,7.85-12.41,11.38c-3.04,3.23-5.81,7.12-9.58,14.29-3.55,6.76-5.06,19.61-5.06,19.61,4.44-1.78,8.38-3.46,17.3-4.61,9.56-1.23,16.75-1.21,16.75-1.21,0,0-5-5.56-7.61-9.54-2.38-3.63-3.65-7.86-3.48-14.01.26-9.15,4.09-15.91,4.09-15.91h0Z"/>
        </g>
      </g>
      <g>
        <path class="cls-1" d="M132.81,165.17c-12.92-9.38-28.82-14.91-46.01-14.91s-32.46,5.32-45.24,14.36l-4.8-7.87c14.2-9.84,31.45-15.61,50.04-15.61s36.59,6.02,50.97,16.26l-4.96,7.77Z"/>
        <path class="cls-1" d="M118.34,172.14c-9.18-4.98-19.69-7.82-30.87-7.82-11.78,0-22.83,3.15-32.35,8.64l-4.39-7c10.52-6.39,22.86-10.07,36.07-10.07s25.37,3.63,35.84,9.93l-4.3,6.31Z"/>
        <path class="cls-1" d="M103.89,182.75c-4.91-2.57-10.49-4.02-16.42-4.02s-11.21,1.38-16.02,3.82l-3.45-7.98c5.97-2.57,12.55-4,19.47-4s13.69,1.47,19.73,4.11l-3.32,8.07Z"/>
      </g>
    </g>
  </g>
</svg>